# xmcd
#
# Track frame offsets:
# 150
# 13722
# 26630
# 44371
# 57243
# 71079
# 84872
# 86205
# 101156
# 114454
# 129039
# 142889
# 154596
# 155929
# 170477
# 183148
# 197944
# 213271
# 231590
# 243841
#
# Disc length: 3410 seconds
#
#
# Revision: 0
# Processed by: cddbd v1.5.1PL0 Copyright (c) Steve Scherf et al.
# Submitted via: FreeRIP 2.942 
#
DISCID=100d5014
DTITLE=Gary Stewart - The Essential Gary Stewart
DYEAR=1997
DGENRE=Country
TTITLE0=Drinkin' Thing
TTITLE1=Honky Tonkin'
TTITLE2=Roarin'
TTITLE3=She's Action Single
TTITLE4=Blacksliders' Wine
TTITLE5=Out Of Hand
TTITLE6=Single Sgain
TTITLE7=Quits
TTITLE8=Oh, Sweet Temptation
TTITLE9=In Some Room Above The Street
TTITLE10=Your Place Or Mine
TTITLE11=Ten Years Of This
TTITLE12=Whiskey Trip
TTITLE13=Stone Wall Around Your Heart
TTITLE14=Flat Natural Born Good-Timin'Man
TTITLE15=Mazelle
TTITLE16=Cactus And A Rose
TTITLE17=Are We Dreamin'The Same Dream
TTITLE18=I See The Want To In Your Eyes
TTITLE19=Brotherly Love
EXTD=
EXTT0=
EXTT1=
EXTT2=
EXTT3=
EXTT4=
EXTT5=
EXTT6=
EXTT7=
EXTT8=
EXTT9=
EXTT10=
EXTT11=
EXTT12=
EXTT13=
EXTT14=
EXTT15=
EXTT16=
EXTT17=
EXTT18=
EXTT19=
PLAYORDER=
